<?xml version="1.0" encoding="utf-8"?>
<!-- Generator: Adobe Illustrator 22.1.0, SVG Export Plug-In . SVG Version: 6.00 Build 0)  -->
<svg version="1.1" id="Layer_1" xmlns="http://www.w3.org/2000/svg" xmlns:xlink="http://www.w3.org/1999/xlink" x="0px" y="0px"
	 viewBox="0 0 15 29" style="enable-background:new 0 0 15 29;" xml:space="preserve">
<style type="text/css">
	.st0{fill:#666666;}
</style>
<g>
	<path class="st0" d="M9.3,28.3H4.7c-0.3,0-0.5-0.2-0.5-0.5V17.5h-3c-0.3,0-0.5-0.2-0.5-0.5v-5.4c0-0.3,0.2-0.5,0.5-0.5h3V7.5
		c0-1.9,0.7-3.8,1.8-5.1C7.1,1,8.8,0.2,10.5,0.2H14c0.3,0,0.5,0.2,0.5,0.5v5.4c0,0.3-0.2,0.5-0.5,0.5h-3.5c-0.1,0-0.3,0.1-0.4,0.2
		C10,7.1,9.9,7.3,9.9,7.5V11H14c0.2,0,0.3,0.1,0.4,0.2s0.1,0.3,0.1,0.5L13.4,17c-0.1,0.3-0.3,0.4-0.5,0.4h-3v10.2
		C9.9,28,9.6,28.3,9.3,28.3z M5.2,27.2h3.6V16.9c0-0.3,0.2-0.5,0.5-0.5h3.1l0.9-4.3h-4c-0.3,0-0.5-0.2-0.5-0.5v-4
		c0-0.5,0.2-1,0.5-1.3c0.3-0.4,0.8-0.6,1.2-0.6h3V1.3h-3c-1.4,0-2.7,0.6-3.7,1.8c-1,1.2-1.6,2.8-1.6,4.4v4c0,0.3-0.2,0.5-0.5,0.5h-3
		v4.3h3c0.3,0,0.5,0.2,0.5,0.5V27.2z"/>
</g>
</svg>
