<?xml version="1.0" encoding="utf-8"?>
<!-- Generator: Adobe Illustrator 22.1.0, SVG Export Plug-In . SVG Version: 6.00 Build 0)  -->
<svg version="1.1" id="Layer_1" xmlns="http://www.w3.org/2000/svg" xmlns:xlink="http://www.w3.org/1999/xlink" x="0px" y="0px"
	 viewBox="0 0 16 16" style="enable-background:new 0 0 16 16;" xml:space="preserve">
<style type="text/css">
	.st0{fill:#666666;}
</style>
<path class="st0" d="M8,3.9c-1.1,0-2.1,0.4-2.9,1.2S3.9,6.9,3.9,8s0.4,2.1,1.2,2.9C5.9,11.7,6.9,12,8,12s2.1-0.4,2.9-1.2
	C11.7,10.1,12,9.1,12,8s-0.4-2.1-1.2-2.9C10.1,4.3,9.1,3.9,8,3.9z M10.2,10.2c-0.6,0.6-1.4,0.9-2.2,0.9s-1.6-0.3-2.2-0.9
	C5.1,9.6,4.8,8.9,4.8,8s0.3-1.6,0.9-2.2S7.1,4.8,8,4.8s1.6,0.3,2.2,0.9c0.6,0.6,0.9,1.4,0.9,2.2S10.8,9.6,10.2,10.2z M15.9,4.7
	c0-0.7-0.2-1.4-0.4-1.9c-0.2-0.5-0.5-1-0.9-1.4c-0.4-0.4-0.9-0.7-1.4-0.9c-0.6-0.2-1.2-0.3-1.9-0.4c-0.8,0-1.9,0-3.3,0s-2.4,0-3.3,0
	C4,0.1,3.4,0.3,2.8,0.5C2.3,0.7,1.8,1,1.4,1.4S0.7,2.3,0.5,2.8C0.3,3.4,0.1,4,0.1,4.7c0,0.8,0,1.9,0,3.3s0,2.4,0,3.3
	c0,0.7,0.2,1.4,0.4,1.9c0.2,0.5,0.5,1,0.9,1.4c0.4,0.4,0.9,0.7,1.4,0.9c0.6,0.2,1.2,0.3,1.9,0.4c0.8,0,1.9,0,3.3,0s2.4,0,3.3,0
	c0.7,0,1.4-0.2,1.9-0.4c0.5-0.2,1-0.5,1.4-0.9c0.4-0.4,0.7-0.9,0.9-1.4c0.2-0.6,0.3-1.2,0.4-1.9c0-0.8,0-1.9,0-3.3
	S15.9,5.6,15.9,4.7z M14.8,11.4c0,0.6-0.1,1.1-0.3,1.6c-0.3,0.8-0.8,1.3-1.6,1.6c-0.5,0.2-1,0.3-1.6,0.3c-0.9,0-2,0-3.4,0
	s-2.5,0-3.4,0c-0.6,0-1.1-0.1-1.6-0.3c-0.8-0.3-1.3-0.8-1.6-1.6c-0.2-0.5-0.3-1-0.3-1.6c0-0.9,0-2,0-3.4s0-2.5,0-3.4
	C1.2,4,1.3,3.5,1.4,3C1.8,2.3,2.3,1.8,3,1.4c0.5-0.2,1-0.3,1.6-0.3c0.9,0,2,0,3.4,0s2.5,0,3.4,0c0.6,0,1.1,0.1,1.6,0.3
	c0.8,0.3,1.3,0.8,1.6,1.6c0.2,0.5,0.3,1,0.3,1.6c0,0.9,0,2,0,3.4S14.9,10.5,14.8,11.4z M12.9,3.1c0.2,0.2,0.3,0.4,0.3,0.7
	s-0.1,0.5-0.3,0.7s-0.4,0.3-0.7,0.3c-0.3,0-0.5-0.1-0.7-0.3c-0.2-0.2-0.3-0.4-0.3-0.7c0-0.3,0.1-0.5,0.3-0.7
	c0.2-0.2,0.4-0.3,0.7-0.3C12.5,2.8,12.7,2.9,12.9,3.1z"/>
</svg>
