<?xml version="1.0" encoding="UTF-8"?><!DOCTYPE svg PUBLIC "-//W3C//DTD SVG 1.1//EN" "http://www.w3.org/Graphics/SVG/1.1/DTD/svg11.dtd"><svg xmlns="http://www.w3.org/2000/svg" xmlns:xlink="http://www.w3.org/1999/xlink"><defs>
<clipPath id="clip0">
<rect width="19.1481" height="20" fill="white" transform="translate(0.618652)"/>
</clipPath>
</defs><symbol id="icon-phone" viewBox="0 0 20 20">
<g clip-path="url(#clip0)">
<path d="M17.7561 9.4H9.61816V10.6H17.7561L15.7455 12.7L16.6072 13.6L19.5752 10.5C19.6684 10.3702 19.7188 10.2123 19.7188 10.05C19.7188 9.88772 19.6684 9.72982 19.5752 9.6L16.6072 6.5L15.7455 7.4L17.7561 9.4Z" fill="black"/>
<path d="M8.37362 19.4V13.2C8.36256 13.0447 8.29849 12.8987 8.19306 12.7886C8.08763 12.6785 7.94786 12.6116 7.79917 12.6H3.5866C3.59153 12.9167 3.71415 13.2189 3.92855 13.4428C4.14295 13.6668 4.43232 13.7949 4.73548 13.8H7.12899V18.8H3.5866C3.35992 18.8149 3.13268 18.7825 2.91809 18.7048C2.70349 18.6271 2.50582 18.5057 2.33656 18.3475C2.1673 18.1893 2.02983 17.9976 1.93215 17.7834C1.83446 17.5693 1.7785 17.337 1.76753 17.1V3.10001C1.75968 2.6373 1.92564 2.18977 2.22987 1.85331C2.5341 1.51686 2.95238 1.31824 3.39512 1.30001H7.12899V6.30001H4.83122C4.52806 6.30516 4.23869 6.43324 4.02429 6.65718C3.80989 6.88112 3.68727 7.18336 3.68234 7.50001H7.89491C8.0436 7.48846 8.18337 7.42154 8.2888 7.31142C8.39423 7.2013 8.4583 7.05531 8.46936 6.90001V0.600012C8.42369 0.443872 8.33642 0.304534 8.21775 0.198285C8.09907 0.0920352 7.95389 0.0232649 7.79917 1.23734e-05H3.5866C3.20936 -0.0133408 2.8333 0.0511002 2.47993 0.189651C2.12655 0.328202 1.80279 0.538145 1.52714 0.807477C1.2515 1.07681 1.02939 1.40025 0.8735 1.7593C0.717613 2.11835 0.631012 2.50598 0.618647 2.90001V16.8C0.590902 17.1977 0.642233 17.597 0.769411 17.9729C0.89659 18.3489 1.09686 18.6932 1.35764 18.9844C1.61841 19.2756 1.93405 19.5072 2.28469 19.6648C2.63534 19.8224 3.0134 19.9024 3.39512 19.9H7.79917C7.86953 19.915 7.94222 19.9133 8.01186 19.895C8.0815 19.8767 8.1463 19.8423 8.20147 19.7942C8.25664 19.7462 8.30075 19.6859 8.33055 19.6176C8.36035 19.5494 8.37507 19.475 8.37362 19.4Z" fill="black"/>
</g>

</symbol><symbol id="icon_email" viewBox="0 0 19 14">
<line x1="0.65" y1="5.84766" x2="0.65" y2="13.8477" stroke="#222222" stroke-width="1.3"/>
<line x1="17.65" y1="5.84766" x2="17.65" y2="13.8477" stroke="#222222" stroke-width="1.3"/>
<line y1="13.1977" x2="18" y2="13.1977" stroke="#222222" stroke-width="1.3"/>
<line y1="1.19766" x2="18" y2="1.19766" stroke="#222222" stroke-width="1.3"/>
<path d="M17.35 3.02975L9.00002 9.5242L0.65 3.02975V1.49766H3.5L9.00002 1.49766H14H17.35V3.02975Z" stroke="#222222" stroke-width="1.3"/>
</symbol><symbol id="icon_facebook" viewBox="0 0 15 29">
<path d="M14 0.749756H10.5C8.95292 0.749756 7.46919 1.45999 6.37523 2.72423C5.28127 3.98846 4.66669 5.70313 4.66669 7.49103V11.5358H1.16669V16.9288H4.66669V27.7148H9.33335V16.9288H12.8334L14 11.5358H9.33335V7.49103C9.33335 7.13345 9.45627 6.79051 9.67506 6.53767C9.89386 6.28482 10.1906 6.14277 10.5 6.14277H14V0.749756Z" stroke="#666666" stroke-width="1.1" stroke-linecap="round" stroke-linejoin="round"/>
</symbol><symbol id="icon_gift" viewBox="0 0 58 64">
<path fill-rule="evenodd" clip-rule="evenodd" d="M54.6564 13.4603H47.4148C47.8957 12.7659 48.2686 11.992 48.5167 11.1591C49.1317 9.0922 48.9049 6.91033 47.878 5.01533C46.8524 3.1197 45.1505 1.73658 43.0836 1.1222C41.0186 0.5072 38.8355 0.73345 36.9405 1.7597C33.1841 3.79402 30.5164 8.12276 29.0231 11.1434C27.5294 8.12273 24.8617 3.79431 21.1055 1.75974C17.1911 -0.356513 12.2843 1.10411 10.1674 5.01536C8.67181 7.77837 8.96013 11.0371 10.6361 13.4603H3.39081C1.59143 13.4603 0.127686 14.9241 0.127686 16.7228V26.4953C0.127686 28.2941 1.59143 29.7572 3.39081 29.7572H4.25562V45.2472V56.9541C4.25562 60.4185 7.07374 63.2359 10.5375 63.2359H29.0232H47.5075C50.9706 63.2359 53.7881 60.4185 53.7881 56.9541V45.2472V29.7572H54.6571C56.4558 29.7572 57.9189 28.2941 57.9183 26.4959V16.7228C57.9183 14.9241 56.4552 13.4603 54.6564 13.4603ZM51.2881 43.9972V29.7572H30.2732V43.9972H51.2881ZM30.2732 46.4972H51.2881V56.9541C51.2881 59.0397 49.5919 60.7359 47.5075 60.7359H30.2732V46.4972ZM27.7732 43.9972V29.7572H6.75562V43.9972H27.7732ZM6.75562 46.4972H27.7732V60.7359H10.5375C8.45249 60.7359 6.75562 59.0397 6.75562 56.9541V46.4972ZM46.1205 10.4466C45.7502 11.6886 44.9782 12.7408 43.9197 13.4603H30.7023C31.8815 10.8264 34.4654 5.94344 38.1305 3.95845C39.4392 3.25033 40.9442 3.09408 42.3705 3.51845C43.7961 3.94283 44.9711 4.89658 45.6786 6.20595C46.388 7.51408 46.5449 9.02033 46.1205 10.4466ZM27.344 13.4603C26.1647 10.8262 23.581 5.94376 19.9161 3.95849C17.213 2.49724 13.8268 3.50599 12.3661 6.20536C10.996 8.73769 11.795 11.8723 14.1252 13.4603H27.344ZM5.54551 27.2578H28.9833L29.0043 27.2573L29.0232 27.2572L29.0445 27.2574L29.0631 27.2578H52.4982C52.5115 27.2574 52.5248 27.2572 52.5381 27.2572C52.5515 27.2572 52.5648 27.2574 52.578 27.2578H54.6564C55.0764 27.2578 55.4183 26.916 55.4183 26.4959V16.7228C55.4183 16.3091 55.0689 15.9603 54.6564 15.9603H3.39081C2.97706 15.9603 2.62769 16.3097 2.62769 16.7228V26.4959C2.62769 26.916 2.97018 27.2578 3.39081 27.2578H5.46572L5.48869 27.2573L5.50562 27.2572L5.51967 27.2573L5.54551 27.2578Z" fill="white"/>
</symbol><symbol id="icon_instagram" viewBox="0 0 23 23">
<path d="M11.4775 0.0898438C13.3942 0.0898438 14.959 0.112305 16.1719 0.157227C17.2051 0.202148 18.126 0.381836 18.9346 0.696289C19.7132 0.995768 20.387 1.43001 20.9561 1.99902C21.5251 2.56803 21.9593 3.24186 22.2588 4.02051C22.5732 4.8291 22.7529 5.75 22.7979 6.7832C22.8428 7.99609 22.8652 9.56087 22.8652 11.4775C22.8652 13.3942 22.8428 14.959 22.7979 16.1719C22.7529 17.2051 22.5732 18.126 22.2588 18.9346C21.9593 19.7132 21.5251 20.387 20.9561 20.9561C20.387 21.5251 19.7132 21.9593 18.9346 22.2588C18.126 22.5732 17.2051 22.7529 16.1719 22.7978C14.959 22.8428 13.3942 22.8652 11.4775 22.8652C9.56087 22.8652 7.99609 22.8428 6.7832 22.7978C5.75 22.7529 4.8291 22.5732 4.02051 22.2588C3.24186 21.9593 2.56803 21.5251 1.99902 20.9561C1.43001 20.387 0.995768 19.7132 0.696289 18.9346C0.381836 18.126 0.202148 17.2051 0.157227 16.1719C0.112305 14.959 0.0898438 13.3942 0.0898438 11.4775C0.0898438 9.56087 0.112305 7.99609 0.157227 6.7832C0.202148 5.75 0.381836 4.8291 0.696289 4.02051C0.995768 3.24186 1.43001 2.56803 1.99902 1.99902C2.56803 1.43001 3.24186 0.995768 4.02051 0.696289C4.8291 0.381836 5.75 0.202148 6.7832 0.157227C7.99609 0.112305 9.56087 0.0898438 11.4775 0.0898438ZM11.4775 1.57227C9.486 1.57227 7.86133 1.59473 6.60352 1.63965C5.79492 1.6696 5.04622 1.81185 4.35742 2.06641C3.2793 2.51562 2.51562 3.2793 2.06641 4.35742C1.81185 5.04622 1.6696 5.79492 1.63965 6.60352C1.59473 7.86133 1.57227 9.486 1.57227 11.4775C1.57227 13.4691 1.59473 15.0937 1.63965 16.3516C1.6696 17.1602 1.81185 17.9089 2.06641 18.5977C2.51562 19.6758 3.2793 20.4395 4.35742 20.8887C5.04622 21.1432 5.79492 21.2855 6.60352 21.3154C7.86133 21.3603 9.486 21.3828 11.4775 21.3828C13.4691 21.3828 15.0938 21.3603 16.3516 21.3154C17.1602 21.2855 17.9089 21.1432 18.5977 20.8887C19.6758 20.4395 20.4395 19.6758 20.8887 18.5977C21.1432 17.9089 21.2855 17.1602 21.3154 16.3516C21.3604 15.0937 21.3828 13.4691 21.3828 11.4775C21.3828 9.486 21.3604 7.86133 21.3154 6.60352C21.2855 5.79492 21.1432 5.04622 20.8887 4.35742C20.4395 3.2793 19.6758 2.51562 18.5977 2.06641C17.9089 1.81185 17.1602 1.6696 16.3516 1.63965C15.0938 1.59473 13.4691 1.57227 11.4775 1.57227ZM11.4775 16.0371C12.7354 16.0371 13.8097 15.5916 14.7007 14.7007C15.5916 13.8097 16.0371 12.7354 16.0371 11.4775C16.0371 10.2197 15.5916 9.14534 14.7007 8.25439C13.8097 7.36344 12.7354 6.91797 11.4775 6.91797C10.2197 6.91797 9.14534 7.36344 8.25439 8.25439C7.36344 9.14534 6.91797 10.2197 6.91797 11.4775C6.91797 12.7354 7.36344 13.8097 8.25439 14.7007C9.14534 15.5916 10.2197 16.0371 11.4775 16.0371ZM11.4775 5.63769C13.0947 5.63769 14.4723 6.20671 15.6104 7.34473C16.7484 8.48275 17.3174 9.86035 17.3174 11.4775C17.3174 13.0947 16.7484 14.4723 15.6104 15.6104C14.4723 16.7484 13.0947 17.3174 11.4775 17.3174C9.86035 17.3174 8.48275 16.7484 7.34473 15.6104C6.20671 14.4723 5.6377 13.0947 5.6377 11.4775C5.6377 9.86035 6.20671 8.48275 7.34473 7.34473C8.48275 6.20671 9.86035 5.63769 11.4775 5.63769ZM18.9346 5.41309C18.9346 5.78743 18.7998 6.10563 18.5303 6.36768C18.2607 6.62972 17.9313 6.76074 17.542 6.76074C17.1676 6.76074 16.8494 6.62972 16.5874 6.36768C16.3254 6.10563 16.1943 5.78743 16.1943 5.41309C16.1943 5.02376 16.3254 4.69434 16.5874 4.4248C16.8494 4.15527 17.1676 4.02051 17.542 4.02051C17.9163 4.02051 18.242 4.15902 18.519 4.43603C18.7961 4.71305 18.9346 5.03874 18.9346 5.41309Z" fill="#666666"/>
</symbol><symbol id="icon_vkontakte" viewBox="0 0 28 22">
<path d="M0.0853271 5.48988C0.0853271 4.63485 0.60043 4.17381 1.63064 4.10674L5.60048 4.13189C5.86691 4.13189 6.04453 4.25763 6.13334 4.50911C6.54187 5.76651 6.99925 6.85206 7.50547 7.76577C8.01169 8.67948 8.67333 9.7315 9.49039 10.9218C9.56144 11.0727 9.6769 11.1482 9.83675 11.1482C9.96109 11.1482 10.0588 11.0895 10.1298 10.9721L10.2098 10.6955L10.2364 6.34491C10.2364 6.04313 10.1609 5.84195 10.0099 5.74136C9.85896 5.64077 9.5792 5.56532 9.17067 5.51503C8.85096 5.46473 8.6911 5.28031 8.6911 4.96177C8.6911 4.89471 8.69998 4.84442 8.71774 4.81089C9.09074 3.72114 10.1565 3.17627 11.9149 3.17627L13.4069 3.15112C14.0819 3.15112 14.6414 3.31039 15.0855 3.62893C15.5295 3.94747 15.7516 4.45043 15.7516 5.13781V10.8464C15.8759 10.9302 15.9913 10.9721 16.0979 10.9721C16.3643 10.9721 16.5953 10.8212 16.7906 10.5195C18.7445 7.93761 19.8013 6.21079 19.9612 5.33899C19.9612 5.32223 19.979 5.28031 20.0145 5.21325C20.1388 4.96177 20.3431 4.74383 20.6273 4.55941C20.9115 4.37499 21.1601 4.24925 21.3733 4.18219C21.4443 4.14866 21.5243 4.13189 21.6131 4.13189H25.7428L26.0092 4.15704C26.3644 4.15704 26.6398 4.31631 26.8351 4.63485C26.9062 4.73544 26.955 4.84442 26.9817 4.96177C27.0083 5.07913 27.0261 5.19649 27.035 5.31384C27.0438 5.4312 27.0483 5.49826 27.0483 5.51503V5.69106C26.924 6.37844 26.6087 7.11192 26.1025 7.89151C25.5962 8.67109 24.9524 9.51355 24.1708 10.4189C23.3893 11.3242 22.9008 11.9194 22.7054 12.2044C22.5456 12.4056 22.4657 12.59 22.4657 12.7576C22.4657 12.8918 22.5367 13.0426 22.6788 13.2103L26.5687 17.8375C26.7819 18.1058 26.8884 18.3992 26.8884 18.7177C26.8884 19.1033 26.7286 19.4218 26.4089 19.6733C26.0891 19.9248 25.7072 20.0673 25.2632 20.1008L24.8103 20.126H20.7605C20.7427 20.126 20.7072 20.1302 20.6539 20.1385C20.6006 20.1469 20.5651 20.1511 20.5473 20.1511C20.1566 20.1511 19.7924 19.9919 19.455 19.6733C19.3306 19.5392 18.4958 18.55 16.9505 16.7059C16.8617 16.5885 16.7374 16.4795 16.5775 16.3789C16.5064 16.6472 16.4132 17.0328 16.2977 17.5357C16.1823 18.0387 16.0979 18.3992 16.0446 18.6171L15.9647 19.0446C15.7871 19.6314 15.4141 19.9835 14.8457 20.1008L14.4727 20.126H11.8616C10.3874 20.126 8.91756 19.4889 7.45218 18.2147C5.98681 16.9406 4.66797 15.2934 3.49566 13.2732C2.32336 11.2529 1.23099 8.90162 0.218543 6.21917C0.129733 6.00122 0.0853271 5.75813 0.0853271 5.48988ZM16.0979 12.0032C15.7249 12.0032 15.3874 11.9068 15.0855 11.714C14.7835 11.5212 14.6325 11.2571 14.6325 10.9218V5.13781C14.6325 4.8025 14.5437 4.5636 14.3661 4.42109C14.1885 4.27859 13.8776 4.20734 13.4336 4.20734L11.9149 4.25763C11.1512 4.25763 10.5739 4.38337 10.1831 4.63485C10.9647 4.98692 11.3554 5.55694 11.3554 6.34491V10.7709C11.3199 11.1901 11.1423 11.538 10.8226 11.8146C10.5028 12.0912 10.1476 12.2295 9.75682 12.2295C9.22396 12.2295 8.81543 11.9864 8.53124 11.5002C7.14579 9.52193 6.11558 7.64422 5.44062 5.8671L5.20083 5.21325L1.65728 5.18811C1.42637 5.18811 1.29759 5.20068 1.27095 5.22583C1.24431 5.25098 1.23099 5.32223 1.23099 5.43958C1.23099 5.59047 1.24875 5.74974 1.28427 5.9174L1.84378 7.32568C3.3358 10.9637 4.9566 13.8306 6.70617 15.9263C8.45575 18.0219 10.1742 19.0698 11.8616 19.0698H14.526C14.6325 19.0698 14.7125 19.0404 14.7658 18.9817C14.819 18.9231 14.8634 18.8099 14.899 18.6422L14.9523 18.3908L15.4585 16.1778C15.6006 15.876 15.7249 15.6748 15.8315 15.5742C16.0269 15.3898 16.2578 15.2976 16.5242 15.2976C16.9505 15.2976 17.3857 15.5407 17.8297 16.0269L20.0944 18.7428C20.2365 18.9608 20.3875 19.0698 20.5473 19.0698H24.9435C25.4763 19.0698 25.7428 18.944 25.7428 18.6925C25.7428 18.6087 25.7161 18.5249 25.6628 18.4411L21.7996 13.8893C21.4976 13.5372 21.3466 13.16 21.3466 12.7576C21.3466 12.3553 21.4887 11.9697 21.7729 11.6008C22.0038 11.2655 22.4523 10.7081 23.1184 9.92849C23.7845 9.1489 24.3662 8.41961 24.8635 7.74062C25.3609 7.06163 25.6895 6.4455 25.8493 5.89225L25.9293 5.56532C25.9115 5.53179 25.9026 5.47731 25.9026 5.40186C25.9026 5.32642 25.8937 5.26355 25.876 5.21325H21.693C21.4266 5.31384 21.2134 5.46473 21.0536 5.66592L20.8937 6.14373C20.4496 7.30053 19.2862 9.08603 17.4034 11.5002C17.0304 11.8355 16.5953 12.0032 16.0979 12.0032Z" fill="#666666"/>
</symbol></svg>