<svg width="112" height="232" viewBox="0 0 112 232" fill="none" xmlns="http://www.w3.org/2000/svg">
<path d="M55.7305 231.461C37.5924 231.461 23.7839 226.357 14.3047 216.148C4.91667 205.94 0.222656 191.63 0.222656 173.219V165.699H30.1641V170.621C30.2552 176.272 30.6654 181.103 31.3945 185.113C32.2148 189.124 33.4909 192.861 35.2227 196.324C37.0456 199.788 39.6432 202.385 43.0156 204.117C46.4792 205.849 50.7174 206.715 55.7305 206.715C60.0143 206.715 63.7057 206.077 66.8047 204.801C69.9036 203.434 72.4102 201.611 74.3242 199.332C76.2383 196.962 77.7422 193.954 78.8359 190.309C79.9297 186.663 80.6589 182.88 81.0234 178.961C81.4792 174.951 81.707 170.257 81.707 164.879C81.707 152.118 79.3828 142.138 74.7344 134.938C70.1771 127.737 62.6576 123.772 52.1758 123.043C51.4466 122.952 50.0339 122.906 47.9375 122.906V92.9648H51.7656C62.5208 92.6003 70.1771 89.8203 74.7344 84.625C79.3828 79.3385 81.707 70.6341 81.707 58.5117C81.707 47.3919 79.8385 38.9609 76.1016 33.2188C72.3646 27.4766 65.7109 24.6055 56.1406 24.6055C51.0365 24.6055 46.7526 25.4714 43.2891 27.2031C39.9167 28.9349 37.2734 31.5326 35.3594 34.9961C33.5365 38.4596 32.2148 42.2422 31.3945 46.3438C30.6654 50.4453 30.2552 55.3672 30.1641 61.1094V65.6211H0.222656V58.1016C0.222656 39.7812 4.96224 25.5625 14.4414 15.4453C23.9206 5.23698 37.8203 0.132812 56.1406 0.132812C74.3698 0.132812 88.1784 5.28255 97.5664 15.582C107.046 25.7904 111.785 40.1003 111.785 58.5117C111.785 71.819 108.914 82.6654 103.172 91.0508C97.4297 99.3451 89.5 104.996 79.3828 108.004C89.6823 111.285 97.6576 117.802 103.309 127.555C108.96 137.216 111.785 149.658 111.785 164.879C111.785 185.934 107.273 202.294 98.25 213.961C89.2266 225.628 75.0534 231.461 55.7305 231.461Z" fill="#F2F2F2"/>
</svg>
