<svg width="58" height="64" viewBox="0 0 58 64" fill="none" xmlns="http://www.w3.org/2000/svg">
<path fill-rule="evenodd" clip-rule="evenodd" d="M54.6564 13.4603H47.4148C47.8957 12.7659 48.2686 11.992 48.5167 11.1591C49.1317 9.0922 48.9049 6.91033 47.878 5.01533C46.8524 3.1197 45.1505 1.73658 43.0836 1.1222C41.0186 0.5072 38.8355 0.73345 36.9405 1.7597C33.1841 3.79402 30.5164 8.12276 29.0231 11.1434C27.5294 8.12273 24.8617 3.79431 21.1055 1.75974C17.1911 -0.356513 12.2843 1.10411 10.1674 5.01536C8.67181 7.77837 8.96013 11.0371 10.6361 13.4603H3.39081C1.59143 13.4603 0.127686 14.9241 0.127686 16.7228V26.4953C0.127686 28.2941 1.59143 29.7572 3.39081 29.7572H4.25562V45.2472V56.9541C4.25562 60.4185 7.07374 63.2359 10.5375 63.2359H29.0232H47.5075C50.9706 63.2359 53.7881 60.4185 53.7881 56.9541V45.2472V29.7572H54.6571C56.4558 29.7572 57.9189 28.2941 57.9183 26.4959V16.7228C57.9183 14.9241 56.4552 13.4603 54.6564 13.4603ZM51.2881 43.9972V29.7572H30.2732V43.9972H51.2881ZM30.2732 46.4972H51.2881V56.9541C51.2881 59.0397 49.5919 60.7359 47.5075 60.7359H30.2732V46.4972ZM27.7732 43.9972V29.7572H6.75562V43.9972H27.7732ZM6.75562 46.4972H27.7732V60.7359H10.5375C8.45249 60.7359 6.75562 59.0397 6.75562 56.9541V46.4972ZM46.1205 10.4466C45.7502 11.6886 44.9782 12.7408 43.9197 13.4603H30.7023C31.8815 10.8264 34.4654 5.94344 38.1305 3.95845C39.4392 3.25033 40.9442 3.09408 42.3705 3.51845C43.7961 3.94283 44.9711 4.89658 45.6786 6.20595C46.388 7.51408 46.5449 9.02033 46.1205 10.4466ZM27.344 13.4603C26.1647 10.8262 23.581 5.94376 19.9161 3.95849C17.213 2.49724 13.8268 3.50599 12.3661 6.20536C10.996 8.73769 11.795 11.8723 14.1252 13.4603H27.344ZM5.54551 27.2578H28.9833L29.0043 27.2573L29.0232 27.2572L29.0445 27.2574L29.0631 27.2578H52.4982C52.5115 27.2574 52.5248 27.2572 52.5381 27.2572C52.5515 27.2572 52.5648 27.2574 52.578 27.2578H54.6564C55.0764 27.2578 55.4183 26.916 55.4183 26.4959V16.7228C55.4183 16.3091 55.0689 15.9603 54.6564 15.9603H3.39081C2.97706 15.9603 2.62769 16.3097 2.62769 16.7228V26.4959C2.62769 26.916 2.97018 27.2578 3.39081 27.2578H5.46572L5.48869 27.2573L5.50562 27.2572L5.51967 27.2573L5.54551 27.2578Z" fill="white"/>
</svg>
